#!OML:ASF I:\golf\golf\golf 2\Subject 1\2002-09-07\Subject1.ASF
:FULLY-SPECIFIED
:DEGREES
238
root 1.70396 13.6611 -4.34046 19.1355 -4.55382 -4.36071
lowerback 33.6856 7.44406 -0.69782
upperback 15.6779 9.04686 6.0853
thorax -0.967359 4.04399 3.90735
lowerneck -15.3366 -4.10437 -3.43599
upperneck 24.2438 -2.27016 -9.31313
head 10.2601 -2.36242 -3.01531
rclavicle 5.08889e-014 1.35174e-014
rhumerus 31.6645 3.76247 -75.5802
rradius 26.3639
rwrist -15.7742
rhand -37.7549 25.961
rfingers 7.12502
rthumb -10.8028 -3.7412
lclavicle 5.08889e-014 1.35174e-014
lhumerus -20.2613 -35.664 94.2544
lradius 92.8119
lwrist -3.2492
lhand -29.0407 12.703
lfingers 7.12502
lthumb -2.39104 42.6694
rfemur -77.7344 -34.334 41.8332
rtibia 105.082
rfoot -25.4793 -3.09786
rtoes -10.5998
lfemur -82.0717 10.6367 -22.4027
ltibia 90.8547
lfoot -23.9472 -5.22579
ltoes -5.12672
239
root 1.72166 13.5606 -4.3313 19.1119 -4.52743 -4.29484
lowerback 33.9229 7.41335 -0.797621
upperback 15.9023 8.97544 6.32525
thorax -0.858763 3.98651 4.22543
lowerneck -15.6557 -4.14973 -4.06199
upperneck 24.3467 -2.17518 -9.14674
head 10.3841 -2.36574 -2.85508
rclavicle -1.43125e-014 4.69132e-014
rhumerus 32.3857 3.71725 -75.3555
rradius 26.2347
rwrist -16.0044
rhand -37.8483 26.1284
rfingers 7.12502
rthumb -10.8929 -3.56903
lclavicle -1.43125e-014 4.69132e-014
lhumerus -20.2261 -35.3854 94.243
lradius 93.3844
lwrist -3.14904
lhand -29.5031 11.7913
lfingers 7.12502
lthumb -2.8376 41.7522
rfemur -78.5098 -34.8893 41.981
rtibia 106.159
rfoot -25.7667 -2.66318
rtoes -10.8908
lfemur -82.7015 10.514 -22.5483
ltibia 91.91
lfoot -24.2058 -4.95375
ltoes -6.50696
240
root 1.73551 13.4592 -4.32276 19.0626 -4.51046 -4.17517
lowerback 34.1981 7.39456 -1.12402
upperback 15.9974 8.86777 6.63768
thorax -0.943537 3.89885 4.73193
lowerneck -15.6745 -4.14627 -4.89356
upperneck 24.536 -1.987 -8.90817
head 10.4907 -2.33368 -2.61656
rclavicle 2.06736e-014 1.35174e-014
rhumerus 32.8316 4.10311 -74.915
rradius 26.2315
rwrist -16.4464
rhand -37.8869 26.3513
rfingers 7.12502
rthumb -10.9302 -3.34423
lclavicle 2.06736e-014 1.35174e-014
lhumerus -20.5921 -34.7417 94.6184
lradius 93.9152
lwrist -3.22051
lhand -29.6434 11.5054
lfingers 7.12502
lthumb -2.97313 41.4644
rfemur -79.2759 -35.4784 42.0703
rtibia 107.229
rfoot -26.0551 -2.28548
rtoes -11.3096
lfemur -83.3177 10.4425 -22.7766
ltibia 92.9579
lfoot -24.6233 -4.96209
ltoes -6.20285
241
root 1.74427 13.359 -4.31652 18.9863 -4.48212 -4.17335
lowerback 34.8229 7.6617 -0.391292
upperback 16.0637 9.37135 6.40361
thorax -0.980171 4.18323 3.9116
lowerneck -16.0143 -4.55797 -3.8405
upperneck 24.5052 -2.80525 -8.98073
head 10.4827 -2.62017 -2.93208
rclavicle -5.725e-014 1.43125e-014
rhumerus 33.1589 1.89262 -75.463
rradius 26.0114
rwrist -16.1668
rhand -37.8287 26.764
rfingers 7.12502
rthumb -10.8741 -2.93447
lclavicle -5.725e-014 1.43125e-014
lhumerus -20.1731 -36.5159 93.8454
lradius 94.3559
lwrist -3.03257
lhand -30.0119 11.2589
lfingers 7.12502
lthumb -3.32892 41.2126
rfemur -79.8963 -35.9719 42.2516
rtibia 108.225
rfoot -26.3506 -2.07104
rtoes -11.2883
lfemur -83.9195 10.4731 -22.8685
ltibia 94.0026
lfoot -25.0054 -5.19703
ltoes -5.128
242
root 1.7536 13.2617 -4.30853 18.9224 -4.49045 -4.15585
lowerback 35.244 7.77034 -0.156811
upperback 16.037 9.56774 6.42208
thorax -1.13502 4.28425 3.71152
lowerneck -15.4123 -4.70195 -3.37024
upperneck 23.9186 -3.10799 -9.42743
head 10.1193 -2.73891 -3.16105
rclavicle 6.36111e-014 -2.38542e-015
rhumerus 33.4024 0.821914 -75.7784
rradius 25.734
rwrist -15.8622
rhand -37.7618 26.9484
rfingers 7.12502
rthumb -10.8095 -2.75341
lclavicle 6.36111e-014 -2.38542e-015
lhumerus -20.4627 -37.1984 93.6837
lradius 94.9552
lwrist -2.99492
lhand -30.7249 11.056
lfingers 7.12502
lthumb -4.01748 40.9978
rfemur -80.4981 -36.4599 42.394
rtibia 109.185
rfoot -26.5563 -1.69309
rtoes -11.2329
lfemur -84.507 10.5639 -23.0147
ltibia 95.0158
lfoot -25.1941 -5.37842
ltoes -4.94485
243
root 1.76771 13.1667 -4.29344 18.837 -4.61143 -4.01167
lowerback 35.6304 7.89773 -0.0155026
upperback 16.0346 9.75448 6.3766
thorax -1.24882 4.3786 3.50056
lowerneck -14.9423 -4.86501 -3.08152
upperneck 23.5283 -3.42743 -9.60732
head 9.86195 -2.8592 -3.27687
rclavicle -1.00187e-013 -2.94201e-014
rhumerus 33.6019 -0.127619 -76.0133
rradius 25.5946
rwrist -15.7094
rhand -37.9269 27.1241
rfingers 7.12502
rthumb -10.9687 -2.56937
lclavicle -1.00187e-013 -2.94201e-014
lhumerus -20.7244 -37.8775 93.5147
lradius 95.5488
lwrist -2.98195
lhand -31.1865 11.2845
lfingers 7.12502
lthumb -4.46323 41.2174
rfemur -81.0951 -36.9911 42.298
rtibia 110.177
rfoot -26.7054 -1.16832
rtoes -11.5355
lfemur -85.0192 10.6606 -23.335
ltibia 96.014
lfoot -25.4234 -5.50027
ltoes -4.42199
244
root 1.78402 13.0713 -4.27655 18.78 -4.7301 -3.93717
lowerback 36.0197 8.0414 0.196353
upperback 16.0122 9.98461 6.35107
thorax -1.37896 4.49576 3.2581
lowerneck -14.7139 -5.1056 -3.12601
upperneck 23.5223 -3.83949 -9.29431
head 9.80471 -3.01019 -3.19999
rclavicle -6.36111e-015 0
rhumerus 33.7265 -0.943456 -76.0943
rradius 25.5254
rwrist -16.0193
rhand -38.2829 27.469
rfingers 7.12502
rthumb -11.3122 -2.20589
lclavicle -6.36111e-015 0
lhumerus -20.9717 -38.5387 93.4271
lradius 96.0645
lwrist -3.20467
lhand -31.0747 11.5612
lfingers 7.12502
lthumb -4.35529 41.4964
rfemur -81.665 -37.4563 42.2199
rtibia 111.152
rfoot -26.8837 -0.769121
rtoes -11.8844
lfemur -85.5827 10.7564 -23.5996
ltibia 97.0281
lfoot -25.7314 -5.64341
ltoes -3.34766
245
root 1.79898 12.975 -4.26301 18.7388 -4.80947 -3.96651
lowerback 36.3425 8.11291 0.480198
upperback 15.9919 10.1513 6.33336
thorax -1.46926 4.58526 3.01549
lowerneck -14.5752 -5.3252 -3.34836
upperneck 23.7259 -4.19177 -8.82929
head 9.85389 -3.13849 -3.04618
rclavicle -6.99722e-014 -5.24792e-014
rhumerus 33.9096 -1.69567 -76.2947
rradius 25.4759
rwrist -16.1324
rhand -38.5843 27.252
rfingers 7.12502
rthumb -11.6028 -2.40676
lclavicle -6.99722e-014 -5.24792e-014
lhumerus -21.2137 -39.0057 93.3506
lradius 96.4283
lwrist -3.72898
lhand -31.3666 11.2029
lfingers 7.12502
lthumb -4.63717 41.1322
rfemur -82.2008 -37.8311 42.2424
rtibia 112.079
rfoot -27.0748 -0.466112
rtoes -12.3607
lfemur -86.1909 10.8662 -23.7457
ltibia 98.0372
lfoot -26.0526 -5.565
ltoes -3.57499
246
root 1.81325 12.8817 -4.25031 18.6717 -4.94228 -3.98187
lowerback 36.6325 8.16802 0.693092
upperback 15.9935 10.2741 6.28908
thorax -1.52561 4.65117 2.80083
lowerneck -14.2588 -5.44631 -3.26413
upperneck 23.5808 -4.41229 -8.81952
head 9.73002 -3.22102 -3.06393
rclavicle -4.77083e-014 2.3059e-014
rhumerus 34.0325 -2.31233 -76.5248
rradius 25.5944
rwrist -16.0573
rhand -38.7954 26.7505
rfingers 7.12502
rthumb -11.8063 -2.89672
lclavicle -4.77083e-014 2.3059e-014
lhumerus -21.4257 -39.4142 93.2113
lradius 96.7001
lwrist -4.4003
lhand -32.3977 10.6529
lfingers 7.12502
lthumb -5.63276 40.558
rfemur -82.7205 -38.1843 42.188
rtibia 113.018
rfoot -27.2803 0.000541188
rtoes -12.3156
lfemur -86.7362 11.005 -23.9031
ltibia 99.015
lfoot -26.4263 -5.19702
ltoes -4.95063
247
root 1.82854 12.7882 -4.237 18.6541 -5.04157 -3.97576
lowerback 36.8407 8.21267 0.925547
upperback 15.987 10.3928 6.24087
thorax -1.55897 4.71787 2.58028
lowerneck -13.7902 -5.53821 -2.94369
upperneck 23.1862 -4.61501 -9.06993
head 9.47433 -3.29672 -3.1905
rclavicle -2.54444e-014 0
rhumerus 34.0862 -2.96623 -76.7383
rradius 25.7632
rwrist -15.9715
rhand -38.9808 26.5328
rfingers 7.12502
rthumb -11.9851 -3.10405
lclavicle -2.54444e-014 0
lhumerus -21.6774 -39.9237 93.0572
lradius 97.1765
lwrist -4.90773
lhand -33.2278 10.6175
lfingers 7.12502
lthumb -6.43414 40.4998
rfemur -83.3326 -38.588 42.1066
rtibia 114.011
rfoot -27.4464 0.709885
rtoes -11.5527
lfemur -87.376 11.1054 -24.1203
ltibia 99.9932
lfoot -26.6737 -4.92555
ltoes -5.73473
